<svg width="1247" height="1247" viewBox="0 0 1247 1247" fill="none" xmlns="http://www.w3.org/2000/svg">
<g clip-path="url(#clip0_503_2)">
<rect width="1247" height="1247" rx="623.5" fill="#001523"/>
<path d="M1247 623.5C1247 279.15 967.85 0 623.5 0C279.15 0 0 279.15 0 623.5C0 967.85 279.15 1247 623.5 1247C967.85 1247 1247 967.85 1247 623.5Z" fill="#001523"/>
<path d="M912.79 393.477C847.952 328.639 758.389 288.527 659.45 288.527H320.317C320.317 315.495 331.253 339.881 348.915 357.577C366.576 375.238 390.996 386.175 417.964 386.175H656.53C725.273 386.175 791.945 412.022 841.194 460.013C893.567 510.994 921.757 580.009 920.025 653.202C918.53 716.885 893.499 778.123 850.024 824.654C800.165 877.978 732.032 907.493 659.45 907.493H474.82C443.369 907.493 417.862 881.986 417.862 850.535V721.233C417.862 693.348 406.926 668.113 389.264 649.84C371.603 631.567 347.183 620.257 320.215 620.257V907.493C320.215 908.988 320.215 910.448 320.317 911.908C322.592 963.806 365.421 1005.14 417.862 1005.14H655.68C854.134 1005.14 1017.71 845.372 1017.74 646.919C1017.74 547.981 977.662 458.383 912.79 393.511V393.477Z" fill="url(#paint0_linear_503_2)"/>
<path d="M623.517 669.266V674.598C623.517 720.891 661.048 758.422 707.341 758.422C753.634 758.422 791.165 720.891 791.165 674.598V669.266H749.015V673.613C749.015 694.569 732.033 714.234 711.179 716.136C686.453 718.378 665.599 698.882 665.599 674.598V669.266H623.449H623.517Z" fill="url(#paint1_linear_503_2)"/>
<path d="M500.701 681.664L501.992 683.26C509.872 692.94 524.103 694.401 533.783 686.521L583.744 645.866C594.85 636.831 594.85 619.883 583.744 610.848L533.783 570.159C524.103 562.279 509.872 563.74 502.026 573.42L500.735 575.016C492.856 584.696 494.316 598.927 503.996 606.773L530.488 628.34L504.03 649.873C494.35 657.753 492.89 671.984 500.769 681.664H500.701Z" fill="url(#paint2_linear_503_2)"/>
<path d="M912.79 393.477C847.952 328.639 758.389 288.527 659.45 288.527H320.317C320.317 315.495 331.253 339.881 348.915 357.577C366.576 375.238 390.996 386.175 417.964 386.175H656.53C725.273 386.175 791.945 412.022 841.194 460.013C893.567 510.994 921.757 580.009 920.025 653.202C918.53 716.885 893.499 778.123 850.024 824.654C800.165 877.978 732.032 907.493 659.45 907.493H474.82C443.369 907.493 417.862 881.986 417.862 850.535V721.233C417.862 693.348 406.926 668.113 389.264 649.84C371.603 631.567 347.183 620.257 320.215 620.257V907.493C320.215 908.988 320.215 910.448 320.317 911.908C322.592 963.806 365.421 1005.14 417.862 1005.14H655.68C854.134 1005.14 1017.71 845.372 1017.74 646.919C1017.74 547.981 977.662 458.383 912.79 393.511V393.477Z" fill="url(#paint3_linear_503_2)"/>
<path d="M623.517 669.266V674.598C623.517 720.891 661.048 758.422 707.341 758.422C753.634 758.422 791.165 720.891 791.165 674.598V669.266H749.015V673.613C749.015 694.569 732.033 714.234 711.179 716.136C686.453 718.378 665.599 698.882 665.599 674.598V669.266H623.449H623.517Z" fill="url(#paint4_linear_503_2)"/>
<path d="M500.701 681.664L501.992 683.26C509.872 692.94 524.103 694.401 533.783 686.521L583.744 645.866C594.85 636.831 594.85 619.883 583.744 610.848L533.783 570.159C524.103 562.279 509.872 563.74 502.026 573.42L500.735 575.016C492.856 584.696 494.316 598.927 503.996 606.773L530.488 628.34L504.03 649.873C494.35 657.753 492.89 671.984 500.769 681.664H500.701Z" fill="url(#paint5_linear_503_2)"/>
</g>
<defs>
<linearGradient id="paint0_linear_503_2" x1="320.215" y1="646.851" x2="1017.71" y2="646.851" gradientUnits="userSpaceOnUse">
<stop stop-color="#A8FFFF"/>
<stop offset="0.23" stop-color="#74DAFF"/>
<stop offset="1" stop-color="#9C58FD"/>
</linearGradient>
<linearGradient id="paint1_linear_503_2" x1="623.517" y1="713.861" x2="791.165" y2="713.861" gradientUnits="userSpaceOnUse">
<stop stop-color="white"/>
<stop offset="1"/>
</linearGradient>
<linearGradient id="paint2_linear_503_2" x1="495.607" y1="628.34" x2="592.065" y2="628.34" gradientUnits="userSpaceOnUse">
<stop stop-color="white"/>
<stop offset="1"/>
</linearGradient>
<linearGradient id="paint3_linear_503_2" x1="320.215" y1="646.851" x2="1017.71" y2="646.851" gradientUnits="userSpaceOnUse">
<stop stop-color="#A8FFFF"/>
<stop offset="0.23" stop-color="#74DAFF"/>
<stop offset="1" stop-color="#9C58FD"/>
</linearGradient>
<linearGradient id="paint4_linear_503_2" x1="320.216" y1="646.849" x2="1017.71" y2="646.849" gradientUnits="userSpaceOnUse">
<stop stop-color="#A8FFFF"/>
<stop offset="0.23" stop-color="#74DAFF"/>
<stop offset="1" stop-color="#9C58FD"/>
</linearGradient>
<linearGradient id="paint5_linear_503_2" x1="320.215" y1="646.851" x2="1017.71" y2="646.851" gradientUnits="userSpaceOnUse">
<stop stop-color="#A8FFFF"/>
<stop offset="0.23" stop-color="#74DAFF"/>
<stop offset="1" stop-color="#9C58FD"/>
</linearGradient>
<clipPath id="clip0_503_2">
<rect width="1247" height="1247" rx="623.5" fill="white"/>
</clipPath>
</defs>
</svg>
