<svg width="3787" height="978" viewBox="0 0 3787 978" fill="none" xmlns="http://www.w3.org/2000/svg">
<path d="M3424.6 760.77C3381.09 760.77 3341.5 750.783 3305.83 730.81C3270.16 710.123 3242.34 682.303 3222.37 647.35C3202.39 612.397 3192.41 573.52 3192.41 530.72C3192.41 522.873 3193.12 511.817 3194.55 497.55L3223.44 262.15C3229.14 215.783 3246.27 172.627 3274.8 132.68C3303.33 92.7333 3339 60.6334 3381.8 36.38C3425.31 12.1267 3470.61 0 3517.69 0H3554.07C3597.58 0 3636.81 10.3433 3671.77 31.03C3707.43 51.7167 3735.25 79.8934 3755.23 115.56C3775.91 151.227 3786.26 190.103 3786.26 232.19C3786.26 237.897 3785.54 247.883 3784.12 262.15L3781.98 282.48H3600.08L3601.15 270.71C3601.86 267.857 3602.22 263.22 3602.22 256.8C3602.22 231.833 3594.73 212.217 3579.75 197.95C3565.48 183.683 3545.15 176.55 3518.76 176.55H3512.34C3483.81 176.55 3459.19 185.467 3438.51 203.3C3418.53 220.42 3407.12 243.247 3404.27 271.78L3377.52 491.13C3376.8 494.697 3376.45 499.69 3376.45 506.11C3376.45 530.363 3384.29 549.623 3399.99 563.89C3415.68 577.443 3436.37 584.22 3462.05 584.22H3468.47C3498.43 584.22 3522.32 578.513 3540.16 567.1C3557.99 555.687 3568.69 536.427 3572.26 509.32L3573.33 498.62H3755.23L3752.02 518.95C3746.31 566.03 3729.55 608.117 3701.73 645.21C3673.91 681.59 3638.6 710.123 3595.8 730.81C3553.71 750.783 3508.77 760.77 3460.98 760.77H3424.6Z" fill="white"/>
<path d="M2940.31 10.6992C2982.39 10.6992 3019.49 19.6159 3051.59 37.4493C3083.69 54.5692 3108.3 78.8226 3125.42 110.209C3143.25 140.883 3152.17 176.193 3152.17 216.139C3152.17 223.273 3151.45 234.686 3150.03 250.379L3144.68 293.179C3138.97 338.833 3123.63 379.849 3098.67 416.229C3073.7 452.609 3041.6 481.143 3002.37 501.829C2963.85 522.516 2921.76 532.859 2876.11 532.859H2751.99L2725.24 748.999H2543.34L2634.29 10.6992H2940.31ZM2967.06 262.149C2967.77 257.869 2968.13 252.163 2968.13 245.029C2968.13 222.916 2961.71 206.866 2948.87 196.879C2936.74 186.893 2917.48 181.899 2891.09 181.899H2794.79L2773.39 361.659H2868.62C2897.86 361.659 2920.33 355.596 2936.03 343.469C2951.72 330.629 2961.35 309.943 2964.92 281.409L2967.06 262.149Z" fill="white"/>
<path d="M2259.7 748.999H2077.8L2146.28 187.249H1964.38L1986.85 10.6992H2532.55L2510.08 187.249H2328.18L2259.7 748.999Z" fill="white"/>
<path d="M1516.57 760.77C1473.06 760.77 1433.47 750.783 1397.8 730.81C1362.13 710.123 1334.31 682.303 1314.34 647.35C1294.37 612.397 1284.38 573.52 1284.38 530.72C1284.38 522.873 1285.09 511.817 1286.52 497.55L1315.41 262.15C1321.12 215.783 1338.24 172.627 1366.77 132.68C1395.3 92.7333 1430.97 60.6334 1473.77 36.38C1517.28 12.1267 1562.58 0 1609.66 0H1646.04C1689.55 0 1728.79 10.3433 1763.74 31.03C1799.41 51.7167 1827.23 79.8934 1847.2 115.56C1867.89 151.227 1878.23 190.103 1878.23 232.19C1878.23 237.897 1877.52 247.883 1876.09 262.15L1873.95 282.48H1692.05L1693.12 270.71C1693.83 267.857 1694.19 263.22 1694.19 256.8C1694.19 231.833 1686.7 212.217 1671.72 197.95C1657.45 183.683 1637.12 176.55 1610.73 176.55H1604.31C1575.78 176.55 1551.17 185.467 1530.48 203.3C1510.51 220.42 1499.09 243.247 1496.24 271.78L1469.49 491.13C1468.78 494.697 1468.42 499.69 1468.42 506.11C1468.42 530.363 1476.27 549.623 1491.96 563.89C1507.65 577.443 1528.34 584.22 1554.02 584.22H1560.44C1590.4 584.22 1614.3 578.513 1632.13 567.1C1649.96 555.687 1660.66 536.427 1664.23 509.32L1665.3 498.62H1847.2L1843.99 518.95C1838.28 566.03 1821.52 608.117 1793.7 645.21C1765.88 681.59 1730.57 710.123 1687.77 730.81C1645.68 750.783 1600.74 760.77 1552.95 760.77H1516.57Z" fill="white"/>
<path d="M1143.35 748.999H961.449L1052.4 10.6992H1234.3L1143.35 748.999Z" fill="white"/>
<path d="M789.24 752H704.24L736.24 489.5H651.24L661.74 407H916.74L906.24 489.5H821.24L789.24 752Z" fill="white"/>
<path d="M456.4 755.5C429.067 755.5 401.234 749.5 372.9 737.5C355.567 730.5 340.567 722.667 327.9 714L373.4 646C387.4 654.333 398.4 660.167 406.4 663.5C427.4 671.5 445.067 675.5 459.4 675.5C473.067 675.5 485.4 673.5 496.4 669.5C503.4 666.833 508.567 663.333 511.9 659C515.567 654.667 517.4 650.167 517.4 645.5C517.4 640.5 515.4 636.5 511.4 633.5C507.734 630.5 501.4 627.833 492.4 625.5L426.4 608.5C403.067 602.5 385.4 591.833 373.4 576.5C361.734 560.833 355.9 543.333 355.9 524C355.9 503.667 361.567 484.167 372.9 465.5C384.234 446.833 400.9 431.667 422.9 420C444.9 408.333 470.9 402.5 500.9 402.5C523.234 402.5 544.234 406.833 563.9 415.5C574.234 419.833 583.734 425 592.4 431C601.4 436.667 608.734 442.167 614.4 447.5L559.4 507.5C549.4 500.167 538.567 494.333 526.9 490C514.567 485 501.9 482.5 488.9 482.5C471.567 482.833 459.067 486 451.4 492C444.067 498 440.4 504.833 440.4 512.5C440.4 522.5 447.9 529.5 462.9 533.5L524.9 548.5C547.9 554.167 566.567 563.833 580.9 577.5C595.567 591.167 602.9 609.333 602.9 632C602.9 639.333 601.9 647.5 599.9 656.5C595.234 677.167 585.734 695 571.4 710C557.4 724.667 540.234 736 519.9 744C499.567 751.667 478.4 755.5 456.4 755.5Z" fill="white"/>
<path d="M20.9004 752L63.4004 407H211.4C230.4 407 247.567 411.5 262.9 420.5C278.567 429.5 290.734 441.667 299.4 457C308.4 472.333 312.9 489.333 312.9 508C312.9 511 312.567 515.5 311.9 521.5L297.4 637.5C294.734 658.833 287.234 678.333 274.9 696C262.9 713.333 247.567 727 228.9 737C210.234 747 190.234 752 168.9 752H20.9004ZM164.9 672C180.9 672 192.4 668.833 199.4 662.5C206.734 655.833 211.4 644.5 213.4 628.5L225.4 530.5C226.067 524.5 226.4 520.5 226.4 518.5C226.4 507.167 223.4 499.167 217.4 494.5C211.4 489.5 201.4 487 187.4 487H138.4L115.9 672H164.9Z" fill="white"/>
<path d="M630.061 352H545.061L577.061 89.5H492.061L502.561 7H757.561L747.061 89.5H662.061L630.061 352Z" fill="white"/>
<path d="M282.803 357.5C262.469 357.5 243.969 352.833 227.303 343.5C210.636 333.833 197.636 320.833 188.303 304.5C178.969 288.167 174.303 270 174.303 250C174.303 246.333 174.636 241.167 175.303 234.5L188.803 124.5C191.469 102.833 199.469 82.6667 212.803 64C226.136 45.3333 242.803 30.3333 262.803 19C283.136 7.66667 304.303 2 326.303 2H343.303C363.636 2 381.969 6.83334 398.303 16.5C414.969 26.1667 427.969 39.3333 437.303 56C446.969 72.6667 451.803 90.8333 451.803 110.5C451.803 113.167 451.469 117.833 450.803 124.5L449.803 134H364.803L365.303 128.5C365.636 127.167 365.803 125 365.803 122C365.803 110.333 362.303 101.167 355.303 94.5C348.636 87.8333 339.136 84.5 326.803 84.5H323.803C310.469 84.5 298.969 88.6667 289.303 97C279.969 105 274.636 115.667 273.303 129L260.803 231.5C260.469 233.167 260.303 235.5 260.303 238.5C260.303 249.833 263.969 258.833 271.303 265.5C278.636 271.833 288.303 275 300.303 275H303.303C317.303 275 328.469 272.333 336.803 267C345.136 261.667 350.136 252.667 351.803 240L352.303 235H437.303L435.803 244.5C433.136 266.5 425.303 286.167 412.303 303.5C399.303 320.5 382.803 333.833 362.803 343.5C343.136 352.833 322.136 357.5 299.803 357.5H282.803Z" fill="white"/>
<path d="M108.4 352H23.4004L65.9004 7H150.9L108.4 352Z" fill="white"/>
<path d="M712.3 351.999H682.9L715.9 299.599L682.9 247.199H712.3L731.5 280.599L750.5 247.199H779.9L746.9 299.799L779.9 351.999H750.5L731.5 318.599L712.3 351.999Z" fill="white"/>
<path d="M3196.05 865.352C3204.55 865.352 3210.95 867.702 3215.25 872.402C3219.55 877.002 3221.7 883.452 3221.7 891.752C3221.7 893.852 3221.55 896.052 3221.25 898.352L3215.55 945.002H3196.2L3201.9 898.352C3202 897.852 3202.05 897.102 3202.05 896.102C3202.05 892.202 3200.75 889.102 3198.15 886.802C3195.65 884.402 3192.45 883.202 3188.55 883.202H3187.95C3183.45 883.202 3179.45 884.752 3175.95 887.852C3172.55 890.852 3170.55 894.752 3169.95 899.552L3169.65 901.952L3164.4 945.002H3145.05L3154.65 866.402H3170.7L3172.2 874.952C3178.3 868.552 3186 865.352 3195.3 865.352H3196.05Z" fill="white"/>
<path d="M3092.88 946.502C3086.98 946.502 3081.78 945.302 3077.28 942.902C3072.78 940.402 3069.28 937.002 3066.78 932.702C3064.28 928.302 3063.03 923.352 3063.03 917.852C3063.03 916.952 3063.13 915.402 3063.33 913.202L3065.13 899.102C3065.83 892.802 3067.93 887.102 3071.43 882.002C3074.93 876.802 3079.43 872.752 3084.93 869.852C3090.43 866.852 3096.38 865.352 3102.78 865.352H3106.53C3112.43 865.352 3117.63 866.652 3122.13 869.252C3126.73 871.752 3130.28 875.252 3132.78 879.752C3135.28 884.152 3136.53 889.152 3136.53 894.752C3136.53 895.652 3136.43 897.102 3136.23 899.102L3134.43 913.202C3133.73 919.402 3131.58 925.052 3127.98 930.152C3124.48 935.252 3119.98 939.252 3114.48 942.152C3108.98 945.052 3103.03 946.502 3096.63 946.502H3092.88ZM3097.98 928.802C3102.18 928.802 3105.88 927.402 3109.08 924.602C3112.38 921.802 3114.28 918.252 3114.78 913.952L3116.88 897.902C3116.98 897.502 3117.03 896.852 3117.03 895.952C3117.03 892.152 3115.73 889.052 3113.13 886.652C3110.63 884.252 3107.48 883.052 3103.68 883.052H3101.58C3097.38 883.052 3093.63 884.452 3090.33 887.252C3087.13 890.052 3085.28 893.602 3084.78 897.902L3082.68 913.952C3082.58 914.352 3082.53 915.002 3082.53 915.902C3082.53 919.702 3083.78 922.802 3086.28 925.202C3088.78 927.602 3091.93 928.802 3095.73 928.802H3097.98Z" fill="white"/>
<path d="M3045.62 859.201C3043.02 859.201 3040.82 858.351 3039.02 856.651C3037.22 854.851 3036.32 852.651 3036.32 850.051C3036.32 846.851 3037.52 844.051 3039.92 841.651C3042.42 839.251 3045.22 838.051 3048.32 838.051C3051.02 838.051 3053.27 838.951 3055.07 840.751C3056.87 842.551 3057.77 844.751 3057.77 847.351C3057.77 850.451 3056.52 853.201 3054.02 855.601C3051.62 858.001 3048.82 859.201 3045.62 859.201ZM3044.87 945.001H3025.37L3034.97 866.401H3054.47L3044.87 945.001Z" fill="white"/>
<path d="M3002.86 945.001C2986.06 945.001 2977.66 937.551 2977.66 922.651C2977.66 920.251 2977.76 918.401 2977.96 917.101L2982.31 881.401H2972.86L2974.81 865.951H2984.26L2987.41 839.551H3006.91L3003.76 865.951H3015.76L3013.81 881.401H3001.81L2997.46 917.101C2997.36 917.601 2997.31 918.351 2997.31 919.351C2997.31 921.951 2997.96 923.951 2999.26 925.351C3000.66 926.751 3002.66 927.451 3005.26 927.451H3012.01L3009.91 945.001H3002.86Z" fill="white"/>
<path d="M2951.43 859.201C2948.83 859.201 2946.63 858.351 2944.83 856.651C2943.03 854.851 2942.13 852.651 2942.13 850.051C2942.13 846.851 2943.33 844.051 2945.73 841.651C2948.23 839.251 2951.03 838.051 2954.13 838.051C2956.83 838.051 2959.08 838.951 2960.88 840.751C2962.68 842.551 2963.58 844.751 2963.58 847.351C2963.58 850.451 2962.33 853.201 2959.83 855.601C2957.43 858.001 2954.63 859.201 2951.43 859.201ZM2950.68 945.001H2931.18L2940.78 866.401H2960.28L2950.68 945.001Z" fill="white"/>
<path d="M2908.67 945.001C2891.87 945.001 2883.47 937.551 2883.47 922.651C2883.47 920.251 2883.57 918.401 2883.77 917.101L2888.12 881.401H2878.67L2880.62 865.951H2890.07L2893.22 839.551H2912.72L2909.57 865.951H2921.57L2919.62 881.401H2907.62L2903.27 917.101C2903.17 917.601 2903.12 918.351 2903.12 919.351C2903.12 921.951 2903.77 923.951 2905.07 925.351C2906.47 926.751 2908.47 927.451 2911.07 927.451H2917.82L2915.72 945.001H2908.67Z" fill="white"/>
<path d="M2835.36 865.199C2841.36 865.199 2846.66 866.499 2851.26 869.099C2855.86 871.599 2859.41 875.049 2861.91 879.449C2864.51 883.749 2865.81 888.599 2865.81 893.999C2865.81 894.899 2865.71 896.249 2865.51 898.049L2863.86 911.999H2812.71L2812.56 913.349C2812.46 913.849 2812.41 914.549 2812.41 915.449C2812.41 919.449 2813.66 922.749 2816.16 925.349C2818.66 927.949 2822.01 929.249 2826.21 929.249H2827.56C2831.66 929.249 2835.21 928.349 2838.21 926.549C2841.21 924.749 2843.51 922.699 2845.11 920.399L2859.21 928.649C2851.41 940.549 2840.21 946.499 2825.61 946.499H2823.36C2817.26 946.499 2811.86 945.249 2807.16 942.749C2802.56 940.249 2799.01 936.849 2796.51 932.549C2794.01 928.249 2792.76 923.399 2792.76 917.999C2792.76 917.199 2792.86 915.799 2793.06 913.799L2794.86 898.049C2795.56 892.049 2797.66 886.549 2801.16 881.549C2804.76 876.549 2809.36 872.599 2814.96 869.699C2820.56 866.699 2826.66 865.199 2833.26 865.199H2835.36ZM2846.31 895.499C2846.51 891.499 2845.46 888.249 2843.16 885.749C2840.96 883.249 2837.61 881.999 2833.11 881.999H2831.46C2827.26 881.999 2823.66 883.299 2820.66 885.899C2817.66 888.399 2815.71 891.599 2814.81 895.499H2846.31Z" fill="white"/>
<path d="M2754.97 864.602C2763.67 864.602 2770.47 867.202 2775.37 872.402C2780.37 877.602 2782.87 884.402 2782.87 892.802C2782.87 895.102 2782.77 896.852 2782.57 898.052L2780.92 912.002C2780.12 918.402 2778.07 924.152 2774.77 929.252C2771.57 934.352 2767.37 938.402 2762.17 941.402C2757.07 944.302 2751.32 945.752 2744.92 945.752H2743.87C2735.67 945.752 2729.42 943.152 2725.12 937.952L2720.77 973.202H2701.27L2714.32 866.252H2731.12L2732.17 873.302C2737.97 867.502 2745.22 864.602 2753.92 864.602H2754.97ZM2763.37 897.902C2763.47 897.502 2763.52 896.852 2763.52 895.952C2763.52 891.852 2762.17 888.602 2759.47 886.202C2756.87 883.702 2753.52 882.452 2749.42 882.452H2747.92C2743.82 882.452 2740.07 883.902 2736.67 886.802C2733.27 889.702 2731.32 893.402 2730.82 897.902L2729.02 912.452C2728.92 912.952 2728.87 913.652 2728.87 914.552C2728.87 918.552 2730.17 921.802 2732.77 924.302C2735.37 926.702 2738.57 927.902 2742.37 927.902H2743.87C2748.27 927.902 2752.17 926.452 2755.57 923.552C2758.97 920.652 2760.97 916.952 2761.57 912.452L2763.37 897.902Z" fill="white"/>
<path d="M2666.93 865.199C2675.93 865.199 2682.73 867.699 2687.33 872.699C2692.03 877.699 2694.38 884.449 2694.38 892.949C2694.38 894.949 2694.23 896.999 2693.93 899.099L2688.23 944.999H2668.73L2674.43 898.349C2674.53 897.849 2674.58 897.099 2674.58 896.099C2674.58 892.199 2673.33 889.099 2670.83 886.799C2668.33 884.399 2665.13 883.199 2661.23 883.199H2660.48C2656.38 883.199 2652.68 884.549 2649.38 887.249C2646.08 889.849 2643.93 893.349 2642.93 897.749L2642.78 899.099L2637.08 944.999H2617.73L2623.43 898.349C2623.53 897.849 2623.58 897.099 2623.58 896.099C2623.58 892.199 2622.28 889.099 2619.68 886.799C2617.18 884.399 2613.98 883.199 2610.08 883.199H2609.48C2605.08 883.199 2601.18 884.649 2597.78 887.549C2594.38 890.449 2592.33 894.199 2591.63 898.799L2585.93 944.999H2566.58L2576.18 866.399H2592.23L2593.28 877.049C2596.28 873.349 2599.73 870.449 2603.63 868.349C2607.53 866.249 2611.78 865.199 2616.38 865.199H2617.13C2622.73 865.199 2627.48 866.299 2631.38 868.499C2635.28 870.699 2638.23 873.799 2640.23 877.799C2643.53 873.899 2647.43 870.849 2651.93 868.649C2656.43 866.349 2661.18 865.199 2666.18 865.199H2666.93Z" fill="white"/>
<path d="M2513.39 946.502C2507.49 946.502 2502.29 945.302 2497.79 942.902C2493.29 940.402 2489.79 937.002 2487.29 932.702C2484.79 928.302 2483.54 923.352 2483.54 917.852C2483.54 916.952 2483.64 915.402 2483.84 913.202L2485.64 899.102C2486.34 892.802 2488.44 887.102 2491.94 882.002C2495.44 876.802 2499.94 872.752 2505.44 869.852C2510.94 866.852 2516.89 865.352 2523.29 865.352H2527.04C2532.94 865.352 2538.14 866.652 2542.64 869.252C2547.24 871.752 2550.79 875.252 2553.29 879.752C2555.79 884.152 2557.04 889.152 2557.04 894.752C2557.04 895.652 2556.94 897.102 2556.74 899.102L2554.94 913.202C2554.24 919.402 2552.09 925.052 2548.49 930.152C2544.99 935.252 2540.49 939.252 2534.99 942.152C2529.49 945.052 2523.54 946.502 2517.14 946.502H2513.39ZM2518.49 928.802C2522.69 928.802 2526.39 927.402 2529.59 924.602C2532.89 921.802 2534.79 918.252 2535.29 913.952L2537.39 897.902C2537.49 897.502 2537.54 896.852 2537.54 895.952C2537.54 892.152 2536.24 889.052 2533.64 886.652C2531.14 884.252 2527.99 883.052 2524.19 883.052H2522.09C2517.89 883.052 2514.14 884.452 2510.84 887.252C2507.64 890.052 2505.79 893.602 2505.29 897.902L2503.19 913.952C2503.09 914.352 2503.04 915.002 2503.04 915.902C2503.04 919.702 2504.29 922.802 2506.79 925.202C2509.29 927.602 2512.44 928.802 2516.24 928.802H2518.49Z" fill="white"/>
<path d="M2426.01 946.65C2419.91 946.65 2414.41 945.25 2409.51 942.45C2404.61 939.65 2400.76 935.85 2397.96 931.05C2395.16 926.15 2393.76 920.7 2393.76 914.7C2393.76 913.8 2393.86 912.35 2394.06 910.35L2398.26 876.15C2399.06 869.65 2401.46 863.65 2405.46 858.15C2409.46 852.55 2414.41 848.15 2420.31 844.95C2426.31 841.65 2432.56 840 2439.06 840H2443.86C2449.86 840 2455.31 841.4 2460.21 844.2C2465.11 847 2468.96 850.85 2471.76 855.75C2474.56 860.55 2475.96 865.85 2475.96 871.65C2475.96 872.65 2475.86 874.15 2475.66 876.15L2475.51 878.4H2456.16L2456.31 877.05C2456.41 876.55 2456.46 875.75 2456.46 874.65C2456.46 869.95 2454.91 866.15 2451.81 863.25C2448.81 860.35 2444.91 858.9 2440.11 858.9H2438.31C2433.01 858.9 2428.41 860.6 2424.51 864C2420.61 867.4 2418.36 871.75 2417.76 877.05L2413.71 909.75C2413.61 910.35 2413.56 911.2 2413.56 912.3C2413.56 916.9 2415.06 920.65 2418.06 923.55C2421.16 926.35 2425.11 927.75 2429.91 927.75H2431.71C2437.11 927.75 2441.66 926.35 2445.36 923.55C2449.16 920.75 2451.36 916.8 2451.96 911.7L2452.11 910.35H2471.46L2471.31 912.6C2470.51 919.2 2468.16 925.1 2464.26 930.3C2460.36 935.4 2455.46 939.4 2449.56 942.3C2443.66 945.2 2437.41 946.65 2430.81 946.65H2426.01Z" fill="white"/>
<path d="M2332.75 866.402H2348.95L2339.65 943.052C2338.85 949.352 2336.65 955.102 2333.05 960.302C2329.55 965.602 2325 969.752 2319.4 972.752C2313.9 975.852 2307.95 977.402 2301.55 977.402H2297.5C2290.1 977.402 2283.75 975.252 2278.45 970.952C2273.25 966.652 2270 961.102 2268.7 954.302L2286.55 948.902C2287.75 956.002 2292.35 959.552 2300.35 959.552H2303.95C2308.05 959.552 2311.6 958.202 2314.6 955.502C2317.6 952.902 2319.35 949.452 2319.85 945.152L2321.2 934.802C2315.3 939.402 2308.6 941.702 2301.1 941.702H2300.05C2291.45 941.702 2284.7 939.052 2279.8 933.752C2274.9 928.352 2272.45 921.402 2272.45 912.902C2272.45 911.902 2272.55 910.202 2272.75 907.802L2273.8 899.702C2274.6 893.302 2276.6 887.502 2279.8 882.302C2283 877.102 2287.15 873.002 2292.25 870.002C2297.35 866.902 2303.05 865.352 2309.35 865.352H2310.4C2318.5 865.352 2325 867.952 2329.9 873.152L2332.75 866.402ZM2306.95 924.002C2311.15 924.002 2314.9 922.602 2318.2 919.802C2321.6 917.002 2323.6 913.352 2324.2 908.852L2325.4 898.352C2325.5 897.852 2325.55 897.102 2325.55 896.102C2325.55 892.302 2324.25 889.202 2321.65 886.802C2319.05 884.402 2315.85 883.202 2312.05 883.202H2310.55C2306.25 883.202 2302.45 884.602 2299.15 887.402C2295.95 890.202 2294.05 893.852 2293.45 898.352L2292.25 908.852C2292.15 909.352 2292.1 910.102 2292.1 911.102C2292.1 915.002 2293.35 918.152 2295.85 920.552C2298.35 922.852 2301.55 924.002 2305.45 924.002H2306.95Z" fill="white"/>
<path d="M2235.85 865.352C2244.35 865.352 2250.75 867.702 2255.05 872.402C2259.35 877.002 2261.5 883.452 2261.5 891.752C2261.5 893.852 2261.35 896.052 2261.05 898.352L2255.35 945.002H2236L2241.7 898.352C2241.8 897.852 2241.85 897.102 2241.85 896.102C2241.85 892.202 2240.55 889.102 2237.95 886.802C2235.45 884.402 2232.25 883.202 2228.35 883.202H2227.75C2223.25 883.202 2219.25 884.752 2215.75 887.852C2212.35 890.852 2210.35 894.752 2209.75 899.552L2209.45 901.952L2204.2 945.002H2184.85L2194.45 866.402H2210.5L2212 874.952C2218.1 868.552 2225.8 865.352 2235.1 865.352H2235.85Z" fill="white"/>
<path d="M2166.72 859.201C2164.12 859.201 2161.92 858.351 2160.12 856.651C2158.32 854.851 2157.42 852.651 2157.42 850.051C2157.42 846.851 2158.62 844.051 2161.02 841.651C2163.52 839.251 2166.32 838.051 2169.42 838.051C2172.12 838.051 2174.37 838.951 2176.17 840.751C2177.97 842.551 2178.87 844.751 2178.87 847.351C2178.87 850.451 2177.62 853.201 2175.12 855.601C2172.72 858.001 2169.92 859.201 2166.72 859.201ZM2165.97 945.001H2146.47L2156.07 866.401H2175.57L2165.97 945.001Z" fill="white"/>
<path d="M2108.54 865.199C2117.54 865.199 2124.34 867.699 2128.94 872.699C2133.64 877.699 2135.99 884.449 2135.99 892.949C2135.99 894.949 2135.84 896.999 2135.54 899.099L2129.84 944.999H2110.34L2116.04 898.349C2116.14 897.849 2116.19 897.099 2116.19 896.099C2116.19 892.199 2114.94 889.099 2112.44 886.799C2109.94 884.399 2106.74 883.199 2102.84 883.199H2102.09C2097.99 883.199 2094.29 884.549 2090.99 887.249C2087.69 889.849 2085.54 893.349 2084.54 897.749L2084.39 899.099L2078.69 944.999H2059.34L2065.04 898.349C2065.14 897.849 2065.19 897.099 2065.19 896.099C2065.19 892.199 2063.89 889.099 2061.29 886.799C2058.79 884.399 2055.59 883.199 2051.69 883.199H2051.09C2046.69 883.199 2042.79 884.649 2039.39 887.549C2035.99 890.449 2033.94 894.199 2033.24 898.799L2027.54 944.999H2008.19L2017.79 866.399H2033.84L2034.89 877.049C2037.89 873.349 2041.34 870.449 2045.24 868.349C2049.14 866.249 2053.39 865.199 2057.99 865.199H2058.74C2064.34 865.199 2069.09 866.299 2072.99 868.499C2076.89 870.699 2079.84 873.799 2081.84 877.799C2085.14 873.899 2089.04 870.849 2093.54 868.649C2098.04 866.349 2102.79 865.199 2107.79 865.199H2108.54Z" fill="white"/>
<path d="M1970.25 865.199C1979.25 865.199 1986.05 867.699 1990.65 872.699C1995.35 877.699 1997.7 884.449 1997.7 892.949C1997.7 894.949 1997.55 896.999 1997.25 899.099L1991.55 944.999H1972.05L1977.75 898.349C1977.85 897.849 1977.9 897.099 1977.9 896.099C1977.9 892.199 1976.65 889.099 1974.15 886.799C1971.65 884.399 1968.45 883.199 1964.55 883.199H1963.8C1959.7 883.199 1956 884.549 1952.7 887.249C1949.4 889.849 1947.25 893.349 1946.25 897.749L1946.1 899.099L1940.4 944.999H1921.05L1926.75 898.349C1926.85 897.849 1926.9 897.099 1926.9 896.099C1926.9 892.199 1925.6 889.099 1923 886.799C1920.5 884.399 1917.3 883.199 1913.4 883.199H1912.8C1908.4 883.199 1904.5 884.649 1901.1 887.549C1897.7 890.449 1895.65 894.199 1894.95 898.799L1889.25 944.999H1869.9L1879.5 866.399H1895.55L1896.6 877.049C1899.6 873.349 1903.05 870.449 1906.95 868.349C1910.85 866.249 1915.1 865.199 1919.7 865.199H1920.45C1926.05 865.199 1930.8 866.299 1934.7 868.499C1938.6 870.699 1941.55 873.799 1943.55 877.799C1946.85 873.899 1950.75 870.849 1955.25 868.649C1959.75 866.349 1964.5 865.199 1969.5 865.199H1970.25Z" fill="white"/>
<path d="M1811.17 946.349C1802.77 946.349 1796.17 944.549 1791.37 940.949C1786.57 937.349 1784.17 932.299 1784.17 925.799C1784.17 917.299 1787.67 910.799 1794.67 906.299C1801.77 901.699 1810.42 898.699 1820.62 897.299L1838.77 894.899C1838.87 890.599 1837.82 887.399 1835.62 885.299C1833.42 883.099 1830.22 881.999 1826.02 881.999H1824.82C1818.12 881.999 1812.72 885.049 1808.62 891.149L1793.92 882.899C1797.32 877.299 1802.02 872.949 1808.02 869.849C1814.12 866.749 1820.22 865.199 1826.32 865.199H1828.72C1837.72 865.199 1844.92 867.449 1850.32 871.949C1855.82 876.449 1858.57 882.699 1858.57 890.699C1858.57 891.599 1858.47 893.049 1858.27 895.049L1852.12 944.699H1837.27L1835.47 936.449C1833.27 939.249 1830.12 941.599 1826.02 943.499C1822.02 945.399 1817.07 946.349 1811.17 946.349ZM1818.37 931.199C1823.57 930.499 1827.72 928.799 1830.82 926.099C1834.02 923.399 1835.87 919.799 1836.37 915.299L1837.42 907.649L1823.32 909.749C1817.12 910.649 1812.32 912.099 1808.92 914.099C1805.52 916.099 1803.82 918.999 1803.82 922.799C1803.82 925.199 1804.72 927.249 1806.52 928.949C1808.42 930.549 1811.32 931.349 1815.22 931.349C1816.52 931.349 1817.57 931.299 1818.37 931.199Z" fill="white"/>
<path d="M1721.96 945.001L1731.56 866.401H1747.61L1749.71 876.301C1752.11 873.501 1755.36 870.951 1759.46 868.651C1763.56 866.351 1767.86 865.151 1772.36 865.051C1777.16 864.851 1781.71 865.501 1786.01 867.001L1780.16 884.551C1776.46 882.851 1772.91 882.001 1769.51 882.001C1763.91 882.001 1758.86 883.901 1754.36 887.701C1749.86 891.401 1747.26 896.101 1746.56 901.801L1741.31 945.001H1721.96Z" fill="white"/>
<path d="M1697.89 866.402H1714.09L1704.79 943.052C1703.99 949.352 1701.79 955.102 1698.19 960.302C1694.69 965.602 1690.14 969.752 1684.54 972.752C1679.04 975.852 1673.09 977.402 1666.69 977.402H1662.64C1655.24 977.402 1648.89 975.252 1643.59 970.952C1638.39 966.652 1635.14 961.102 1633.84 954.302L1651.69 948.902C1652.89 956.002 1657.49 959.552 1665.49 959.552H1669.09C1673.19 959.552 1676.74 958.202 1679.74 955.502C1682.74 952.902 1684.49 949.452 1684.99 945.152L1686.34 934.802C1680.44 939.402 1673.74 941.702 1666.24 941.702H1665.19C1656.59 941.702 1649.84 939.052 1644.94 933.752C1640.04 928.352 1637.59 921.402 1637.59 912.902C1637.59 911.902 1637.69 910.202 1637.89 907.802L1638.94 899.702C1639.74 893.302 1641.74 887.502 1644.94 882.302C1648.14 877.102 1652.29 873.002 1657.39 870.002C1662.49 866.902 1668.19 865.352 1674.49 865.352H1675.54C1683.64 865.352 1690.14 867.952 1695.04 873.152L1697.89 866.402ZM1672.09 924.002C1676.29 924.002 1680.04 922.602 1683.34 919.802C1686.74 917.002 1688.74 913.352 1689.34 908.852L1690.54 898.352C1690.64 897.852 1690.69 897.102 1690.69 896.102C1690.69 892.302 1689.39 889.202 1686.79 886.802C1684.19 884.402 1680.99 883.202 1677.19 883.202H1675.69C1671.39 883.202 1667.59 884.602 1664.29 887.402C1661.09 890.202 1659.19 893.852 1658.59 898.352L1657.39 908.852C1657.29 909.352 1657.24 910.102 1657.24 911.102C1657.24 915.002 1658.49 918.152 1660.99 920.552C1663.49 922.852 1666.69 924.002 1670.59 924.002H1672.09Z" fill="white"/>
<path d="M1583.94 946.502C1578.04 946.502 1572.84 945.302 1568.34 942.902C1563.84 940.402 1560.34 937.002 1557.84 932.702C1555.34 928.302 1554.09 923.352 1554.09 917.852C1554.09 916.952 1554.19 915.402 1554.39 913.202L1556.19 899.102C1556.89 892.802 1558.99 887.102 1562.49 882.002C1565.99 876.802 1570.49 872.752 1575.99 869.852C1581.49 866.852 1587.44 865.352 1593.84 865.352H1597.59C1603.49 865.352 1608.69 866.652 1613.19 869.252C1617.79 871.752 1621.34 875.252 1623.84 879.752C1626.34 884.152 1627.59 889.152 1627.59 894.752C1627.59 895.652 1627.49 897.102 1627.29 899.102L1625.49 913.202C1624.79 919.402 1622.64 925.052 1619.04 930.152C1615.54 935.252 1611.04 939.252 1605.54 942.152C1600.04 945.052 1594.09 946.502 1587.69 946.502H1583.94ZM1589.04 928.802C1593.24 928.802 1596.94 927.402 1600.14 924.602C1603.44 921.802 1605.34 918.252 1605.84 913.952L1607.94 897.902C1608.04 897.502 1608.09 896.852 1608.09 895.952C1608.09 892.152 1606.79 889.052 1604.19 886.652C1601.69 884.252 1598.54 883.052 1594.74 883.052H1592.64C1588.44 883.052 1584.69 884.452 1581.39 887.252C1578.19 890.052 1576.34 893.602 1575.84 897.902L1573.74 913.952C1573.64 914.352 1573.59 915.002 1573.59 915.902C1573.59 919.702 1574.84 922.802 1577.34 925.202C1579.84 927.602 1582.99 928.802 1586.79 928.802H1589.04Z" fill="white"/>
<path d="M1487.43 945.001L1497.03 866.401H1513.08L1515.18 876.301C1517.58 873.501 1520.83 870.951 1524.93 868.651C1529.03 866.351 1533.33 865.151 1537.83 865.051C1542.63 864.851 1547.18 865.501 1551.48 867.001L1545.63 884.551C1541.93 882.851 1538.38 882.001 1534.98 882.001C1529.38 882.001 1524.33 883.901 1519.83 887.701C1515.33 891.401 1512.73 896.101 1512.03 901.801L1506.78 945.001H1487.43Z" fill="white"/>
<path d="M1452.4 841.5C1461.3 841.5 1468.4 844.1 1473.7 849.3C1479 854.4 1481.65 861.15 1481.65 869.55C1481.65 870.65 1481.55 872.3 1481.35 874.5L1480.75 879.15C1479.95 885.55 1477.85 891.25 1474.45 896.25C1471.05 901.25 1466.65 905.15 1461.25 907.95C1455.95 910.75 1450.1 912.15 1443.7 912.15H1421.35L1417.3 945H1397.8L1410.55 841.5H1452.4ZM1461.85 875.7C1461.95 875 1462 874.05 1462 872.85C1462 864.15 1457.1 859.8 1447.3 859.8H1427.8L1427.05 865.95L1423.6 893.7H1443.1C1454.1 893.7 1460.25 888.45 1461.55 877.95L1461.85 875.7Z" fill="white"/>
<path d="M1307.12 946.35C1298.22 946.35 1291.07 944 1285.67 939.3C1280.37 934.5 1277.72 927.95 1277.72 919.65C1277.72 918.55 1277.82 916.9 1278.02 914.7H1296.92C1296.82 915.2 1296.77 916 1296.77 917.1C1296.77 921 1297.97 923.95 1300.37 925.95C1302.87 927.85 1306.07 928.8 1309.97 928.8H1311.77C1315.57 928.8 1319.17 927.4 1322.57 924.6C1325.97 921.7 1327.92 918.15 1328.42 913.95L1329.77 904.05L1329.92 902.25C1329.92 898.75 1328.72 895.8 1326.32 893.4C1324.02 891 1320.92 889.8 1317.02 889.8H1316.72C1314.12 889.8 1311.32 890.45 1308.32 891.75C1305.32 893.05 1302.52 895.4 1299.92 898.8L1282.52 893.7L1298.12 841.5H1349.12L1346.87 859.35H1311.02L1304.27 882C1306.37 880 1309.12 878.55 1312.52 877.65C1315.92 876.65 1318.72 876.15 1320.92 876.15H1322.87C1327.87 876.15 1332.32 877.2 1336.22 879.3C1340.22 881.4 1343.32 884.35 1345.52 888.15C1347.82 891.95 1348.97 896.3 1348.97 901.2C1348.97 902 1348.87 903.3 1348.67 905.1L1347.62 913.05C1346.92 919.25 1344.82 924.9 1341.32 930C1337.82 935.1 1333.37 939.1 1327.97 942C1322.57 944.9 1316.72 946.35 1310.42 946.35H1307.12Z" fill="white"/>
<path d="M1189.29 945L1191.54 927.15L1234.59 888.3C1239.89 883.5 1243.34 879.9 1244.94 877.5C1246.54 875.1 1247.34 872.4 1247.34 869.4C1247.34 865.9 1246.24 863.2 1244.04 861.3C1241.84 859.4 1238.89 858.45 1235.19 858.45H1232.19C1228.09 858.45 1224.54 859.9 1221.54 862.8C1218.64 865.6 1216.89 869.35 1216.29 874.05H1197.39C1198.59 864.05 1202.54 855.95 1209.24 849.75C1216.04 843.55 1224.44 840.3 1234.44 840H1237.44C1243.34 840 1248.54 841.15 1253.04 843.45C1257.54 845.65 1260.99 848.75 1263.39 852.75C1265.89 856.75 1267.14 861.25 1267.14 866.25C1267.14 867.15 1267.04 868.5 1266.84 870.3C1266.14 876.2 1264.44 881.1 1261.74 885C1259.14 888.9 1254.69 893.7 1248.39 899.4L1218.99 926.1H1260.99L1258.74 945H1189.29Z" fill="white"/>
<path d="M1130.54 946.2C1124.44 946.2 1118.94 944.85 1114.04 942.15C1109.24 939.35 1105.44 935.55 1102.64 930.75C1099.84 925.85 1098.44 920.45 1098.44 914.55C1098.44 913.45 1098.54 911.9 1098.74 909.9L1102.79 876.15C1103.59 869.75 1105.94 863.8 1109.84 858.3C1113.84 852.7 1118.84 848.25 1124.84 844.95C1130.84 841.65 1137.09 840 1143.59 840H1150.19C1156.19 840 1161.64 841.45 1166.54 844.35C1171.54 847.15 1175.44 851 1178.24 855.9C1181.04 860.7 1182.44 866.05 1182.44 871.95C1182.44 872.75 1182.34 874.15 1182.14 876.15L1178.09 909.9C1177.29 916.5 1174.89 922.6 1170.89 928.2C1166.89 933.7 1161.89 938.1 1155.89 941.4C1149.99 944.6 1143.74 946.2 1137.14 946.2H1130.54ZM1137.59 927.9C1143.09 927.9 1147.79 926.2 1151.69 922.8C1155.59 919.4 1157.89 914.9 1158.59 909.3L1162.64 877.05C1162.74 876.45 1162.79 875.55 1162.79 874.35C1162.79 869.45 1161.24 865.6 1158.14 862.8C1155.14 859.9 1151.14 858.45 1146.14 858.45H1143.29C1137.69 858.45 1132.94 860.15 1129.04 863.55C1125.24 866.95 1122.99 871.45 1122.29 877.05L1118.24 909.3C1118.14 909.9 1118.09 910.85 1118.09 912.15C1118.09 916.95 1119.59 920.8 1122.59 923.7C1125.59 926.5 1129.64 927.9 1134.74 927.9H1137.59Z" fill="white"/>
<path d="M1009.56 945L1011.81 927.15L1054.86 888.3C1060.16 883.5 1063.61 879.9 1065.21 877.5C1066.81 875.1 1067.61 872.4 1067.61 869.4C1067.61 865.9 1066.51 863.2 1064.31 861.3C1062.11 859.4 1059.16 858.45 1055.46 858.45H1052.46C1048.36 858.45 1044.81 859.9 1041.81 862.8C1038.91 865.6 1037.16 869.35 1036.56 874.05H1017.66C1018.86 864.05 1022.81 855.95 1029.51 849.75C1036.31 843.55 1044.71 840.3 1054.71 840H1057.71C1063.61 840 1068.81 841.15 1073.31 843.45C1077.81 845.65 1081.26 848.75 1083.66 852.75C1086.16 856.75 1087.41 861.25 1087.41 866.25C1087.41 867.15 1087.31 868.5 1087.11 870.3C1086.41 876.2 1084.71 881.1 1082.01 885C1079.41 888.9 1074.96 893.7 1068.66 899.4L1039.26 926.1H1081.26L1079.01 945H1009.56Z" fill="white"/>
<path d="M920.937 945.902C912.837 945.902 904.587 944.052 896.187 940.352C893.087 938.952 890.387 937.502 888.087 936.002C885.787 934.402 884.387 933.352 883.887 932.852L894.387 917.402C894.987 917.802 896.237 918.652 898.137 919.952C900.037 921.152 901.987 922.252 903.987 923.252C910.787 926.152 916.637 927.602 921.537 927.602C927.537 927.602 932.287 926.702 935.787 924.902C938.487 923.702 940.537 922.152 941.937 920.252C943.437 918.352 944.187 916.252 944.187 913.952C944.187 911.152 943.087 909.052 940.887 907.652C938.787 906.152 935.437 904.802 930.837 903.602L915.387 899.552C908.087 897.652 902.487 894.552 898.587 890.252C894.787 885.852 892.887 880.752 892.887 874.952C892.887 868.852 894.587 863.152 897.987 857.852C901.487 852.552 906.287 848.302 912.387 845.102C918.587 841.902 925.637 840.252 933.537 840.152C940.337 840.152 946.787 841.452 952.887 844.052C958.387 846.252 963.187 849.402 967.287 853.502L954.687 867.152C954.587 867.052 953.737 866.352 952.137 865.052C950.537 863.752 947.987 862.402 944.487 861.002C940.187 859.402 935.887 858.602 931.587 858.602C925.587 858.602 920.837 859.902 917.337 862.502C913.837 865.102 912.087 868.402 912.087 872.402C912.087 875.002 913.087 877.102 915.087 878.702C917.087 880.202 919.937 881.402 923.637 882.302L938.187 885.902C955.187 890.002 963.687 898.352 963.687 910.952C963.687 913.052 963.487 915.102 963.087 917.102C961.887 923.202 959.137 928.452 954.837 932.852C950.637 937.152 945.537 940.402 939.537 942.602C933.637 944.802 927.437 945.902 920.937 945.902Z" fill="white"/>
<path d="M869.3 945H800L812.75 841.5H882.05L879.65 860.4H829.85L827 883.65H873.95L871.7 902.55H824.75L821.75 926.1H871.55L869.3 945Z" fill="white"/>
<path d="M699.09 945H679.59L692.34 841.5H714.24L734.64 903.15L770.49 841.5H792.39L779.64 945H760.14L768.09 880.35L735.84 936H725.49L707.04 880.35L699.09 945Z" fill="white"/>
<path d="M621.364 841.5L644.164 841.65L667.714 945H647.014L642.364 922.35H603.214L592.714 945H572.164L621.364 841.5ZM630.064 862.2L610.714 903.9H639.364L630.064 862.2Z" fill="white"/>
<path d="M539.91 839.402C546.01 839.402 551.51 840.802 556.41 843.602C561.31 846.302 565.16 850.052 567.96 854.852C570.76 859.652 572.16 864.952 572.16 870.752C572.16 871.552 572.06 872.952 571.86 874.952L571.56 877.802H552.06L552.21 876.302C552.31 875.702 552.36 874.852 552.36 873.752C552.36 869.252 550.76 865.552 547.56 862.652C544.46 859.752 540.51 858.302 535.71 858.302H532.86C527.56 858.302 522.91 860.052 518.91 863.552C514.91 867.052 512.56 871.502 511.86 876.902L507.81 909.452C507.71 910.052 507.66 910.902 507.66 912.002C507.66 916.602 509.21 920.452 512.31 923.552C515.51 926.552 519.51 928.052 524.31 928.052H527.16C532.56 928.052 537.21 926.452 541.11 923.252C545.01 920.052 547.31 915.802 548.01 910.502L548.61 905.852H530.01L532.11 889.202H570.21L567.36 911.852C566.56 918.452 564.21 924.452 560.31 929.852C556.41 935.152 551.46 939.352 545.46 942.452C539.56 945.452 533.31 946.952 526.71 946.952H520.11C514.01 946.952 508.51 945.552 503.61 942.752C498.81 939.952 495.01 936.152 492.21 931.352C489.51 926.452 488.16 920.952 488.16 914.852C488.16 913.852 488.26 912.252 488.46 910.052L492.66 875.552C493.46 869.052 495.81 863.052 499.71 857.552C503.71 851.952 508.66 847.552 514.56 844.352C520.56 841.052 526.81 839.402 533.31 839.402H539.91Z" fill="white"/>
<path d="M407.975 945H388.475L398.825 860.4H370.475L372.875 841.5H449.075L446.675 860.4H418.325L407.975 945Z" fill="white"/>
<path d="M329.6 841.5C338.5 841.5 345.6 844.1 350.9 849.3C356.2 854.4 358.85 861.15 358.85 869.55C358.85 870.65 358.75 872.3 358.55 874.5L357.95 879.15C357.15 885.95 354.85 891.95 351.05 897.15C347.35 902.25 342.6 906.15 336.8 908.85L353.9 945H332.75L317.15 912.15H298.55L294.5 945H275L287.75 841.5H329.6ZM339.05 875.7C339.15 875 339.2 873.95 339.2 872.55C339.2 864.05 334.3 859.8 324.5 859.8H305L304.25 865.95L300.8 893.7H320.3C331.3 893.7 337.45 888.45 338.75 877.95L339.05 875.7Z" fill="white"/>
<path d="M215.262 946.801C209.162 946.801 203.662 945.401 198.762 942.601C193.862 939.801 190.012 936.001 187.212 931.201C184.412 926.301 183.012 920.851 183.012 914.851C183.012 913.951 183.112 912.501 183.312 910.501L187.662 875.701C188.462 869.201 190.812 863.201 194.712 857.701C198.712 852.101 203.662 847.701 209.562 844.501C215.562 841.201 221.812 839.551 228.312 839.551H234.912C240.912 839.551 246.362 841.001 251.262 843.901C256.262 846.701 260.162 850.551 262.962 855.451C265.762 860.251 267.162 865.551 267.162 871.351C267.162 872.251 267.062 873.701 266.862 875.701L262.512 910.501C261.712 917.101 259.362 923.201 255.462 928.801C251.562 934.301 246.612 938.701 240.612 942.001C234.712 945.201 228.462 946.801 221.862 946.801H215.262ZM222.162 928.351C227.762 928.351 232.462 926.701 236.262 923.401C240.162 920.001 242.462 915.501 243.162 909.901L247.212 876.451C247.312 875.851 247.362 874.901 247.362 873.601C247.362 868.801 245.862 865.001 242.862 862.201C239.862 859.301 235.812 857.851 230.712 857.851H227.862C222.362 857.851 217.662 859.551 213.762 862.951C209.862 866.351 207.562 870.851 206.862 876.451L202.812 909.901C202.712 910.501 202.662 911.401 202.662 912.601C202.662 917.401 204.162 921.251 207.162 924.151C210.162 926.951 214.212 928.351 219.312 928.351H222.162Z" fill="white"/>
<path d="M147.08 841.5C155.98 841.5 163.08 844.1 168.38 849.3C173.68 854.4 176.33 861.15 176.33 869.55C176.33 870.65 176.23 872.3 176.03 874.5L175.43 879.15C174.63 885.55 172.53 891.25 169.13 896.25C165.73 901.25 161.33 905.15 155.93 907.95C150.63 910.75 144.78 912.15 138.38 912.15H116.03L111.98 945H92.4805L105.23 841.5H147.08ZM156.53 875.7C156.63 875 156.68 874.05 156.68 872.85C156.68 864.15 151.78 859.8 141.98 859.8H122.48L121.73 865.95L118.28 893.7H137.78C148.78 893.7 154.93 888.45 156.23 877.95L156.53 875.7Z" fill="white"/>
<path d="M37.05 945.902C28.95 945.902 20.7 944.052 12.3 940.352C9.2 938.952 6.5 937.502 4.2 936.002C1.9 934.402 0.5 933.352 0 932.852L10.5 917.402C11.1 917.802 12.35 918.652 14.25 919.952C16.15 921.152 18.1 922.252 20.1 923.252C26.9 926.152 32.75 927.602 37.65 927.602C43.65 927.602 48.4 926.702 51.9 924.902C54.6 923.702 56.65 922.152 58.05 920.252C59.55 918.352 60.3 916.252 60.3 913.952C60.3 911.152 59.2 909.052 57 907.652C54.9 906.152 51.55 904.802 46.95 903.602L31.5 899.552C24.2 897.652 18.6 894.552 14.7 890.252C10.9 885.852 9 880.752 9 874.952C9 868.852 10.7 863.152 14.1 857.852C17.6 852.552 22.4 848.302 28.5 845.102C34.7 841.902 41.75 840.252 49.65 840.152C56.45 840.152 62.9 841.452 69 844.052C74.5 846.252 79.3 849.402 83.4 853.502L70.8 867.152C70.7 867.052 69.85 866.352 68.25 865.052C66.65 863.752 64.1 862.402 60.6 861.002C56.3 859.402 52 858.602 47.7 858.602C41.7 858.602 36.95 859.902 33.45 862.502C29.95 865.102 28.2 868.402 28.2 872.402C28.2 875.002 29.2 877.102 31.2 878.702C33.2 880.202 36.05 881.402 39.75 882.302L54.3 885.902C71.3 890.002 79.8 898.352 79.8 910.952C79.8 913.052 79.6 915.102 79.2 917.102C78 923.202 75.25 928.452 70.95 932.852C66.75 937.152 61.65 940.402 55.65 942.602C49.75 944.802 43.55 945.902 37.05 945.902Z" fill="white"/>
</svg>
