<svg width="1080" height="1080" viewBox="0 0 1080 1080" fill="none" xmlns="http://www.w3.org/2000/svg">
<g clip-path="url(#clip0_503_16)">
<path d="M1084.78 -8.5H-4.78125V1088.5H1084.78V-8.5Z" fill="url(#paint0_linear_503_16)"/>
<path d="M100.4 715.301H119.5V783.701H153.1V799.701H100.5V715.301H100.4Z" fill="white"/>
<path d="M183.5 715.301V799.801H164.4V715.301H183.5Z" fill="white"/>
<path d="M200.1 799.699V715.199H222.4L239.9 746.199C244.9 755.099 249.8 765.599 253.7 775.199H254C252.9 763.999 252.5 752.599 252.5 739.899V715.299H270V799.799H249.9L231.9 767.199C226.9 758.199 221.2 747.299 217.2 737.399H216.7C217.3 748.699 217.6 760.599 217.6 774.399V799.799H200.1V799.699Z" fill="white"/>
<path d="M336.8 764.001H305.7V784.101H340.4V799.801H286.6V715.301H338.6V731.001H305.6V748.501H336.7V764.001H336.8Z" fill="white"/>
<path d="M456.1 756.601C456.1 784.401 439.4 801.101 414.6 801.101C389.7 801.101 374.9 782.201 374.9 758.001C374.9 732.701 391.2 713.801 416 713.801C441.9 713.801 456.1 733.201 456.1 756.601ZM395.1 757.601C395.1 774.301 402.9 785.901 415.7 785.901C428.6 785.901 436 773.601 436 757.201C436 741.901 428.9 728.901 415.7 728.901C402.6 728.901 395.1 741.201 395.1 757.601Z" fill="white"/>
<path d="M468.6 716.402C474.5 715.402 482.8 714.602 494.4 714.602C506.2 714.602 514.6 716.902 520.2 721.402C525.7 725.702 529.2 732.702 529.2 741.002C529.2 749.302 526.6 756.402 521.4 761.102C514.9 767.102 505.2 770.002 494 770.002C491.5 770.002 489.2 769.902 487.5 769.502V799.802H468.6V716.402ZM487.6 754.802C489.2 755.202 491.1 755.302 494 755.302C504.2 755.302 510.4 750.202 510.4 741.602C510.4 733.802 505 729.202 495.4 729.202C491.6 729.202 489 729.502 487.6 729.802V754.802Z" fill="white"/>
<path d="M591.7 764.001H560.6V784.101H595.3V799.801H541.5V715.301H593.5V731.001H560.5V748.501H591.6V764.001H591.7Z" fill="white"/>
<path d="M608.4 799.699V715.199H630.7L648.2 746.199C653.2 755.099 658.1 765.599 662 775.199H662.3C661.2 763.999 660.8 752.599 660.8 739.899V715.299H678.3V799.799H658.2L640.2 767.199C635.2 758.199 629.5 747.299 625.5 737.399H625C625.6 748.699 625.9 760.599 625.9 774.399V799.799H608.4V799.699Z" fill="white"/>
<path d="M756.8 797.5C753.4 799.1 745.4 801.1 735.2 801.1C706 801.1 691 782.8 691 758.7C691 729.9 711.6 714 737.1 714C747 714 754.5 715.9 757.9 717.8L753.9 732.8C750.1 731.2 744.8 729.7 737.9 729.7C722.9 729.7 711.1 738.8 711.1 757.7C711.1 774.6 721.1 785.3 738 785.3C743.9 785.3 750.2 784.2 754 782.5L756.8 797.5Z" fill="white"/>
<path d="M788.6 715.301V747.801H820.1V715.301H839.2V799.801H820V764.501H788.5V799.801H769.4V715.301H788.6Z" fill="white"/>
<path d="M875.401 778.101L869.401 799.801H849.701L875.401 715.301H900.501L926.801 799.801H906.101L899.601 778.101H875.401ZM896.901 763.801L891.601 745.901C890.101 740.901 888.601 734.601 887.301 729.601H887.001C885.701 734.601 884.501 741.001 883.101 745.901L878.101 763.801H896.901Z" fill="white"/>
<path d="M944.001 731.301H921.201V715.301H986.101V731.301H963.001V799.701H944.001V731.301Z" fill="white"/>
<path d="M732.301 385.2C730.501 312.4 673.001 253.5 600.901 249.2H600.401C597.801 249.1 595.201 249 592.601 249C590.001 249 587.401 249.1 584.801 249.2H488.901C488.401 249.2 488.001 249.2 487.501 249.2C410.301 249.2 347.701 311.8 347.701 389C347.701 389.6 347.701 390.1 347.701 390.6V498.8C350.101 572.3 409.301 631.5 482.901 633.8V634H601.201C606.501 634 610.801 629.8 611.101 624.6C611.101 624.4 611.201 624.2 611.201 624.1C611.201 624 611.201 623.7 611.101 623.6V583.6C611.101 578.5 607.301 574.4 602.401 573.8L602.501 573.7H601.201H496.101H482.801C444.901 570.7 414.301 541.8 408.701 504.6C408.201 501.1 407.901 497.6 407.801 494V493.9V493.8V390.8C407.801 386.6 408.201 382.5 408.801 378.6C414.401 344.1 441.601 316.8 476.201 311.3C480.301 310.6 484.501 310.3 488.701 310.3V310.4H493.501H580.201H600.501C601.301 310.5 602.201 310.6 603.001 310.7C640.101 316.5 668.901 347.3 671.501 385.4H671.401V626.9C672.301 631.4 676.301 634.8 681.101 634.8H722.201C727.701 634.8 732.101 630.3 732.101 624.9V388.7L732.301 385.2Z" fill="white"/>
</g>
<defs>
<linearGradient id="paint0_linear_503_16" x1="113.342" y1="-218.504" x2="1409.78" y2="510.74" gradientUnits="userSpaceOnUse">
<stop stop-color="#00D3C8"/>
<stop offset="0.0790465" stop-color="#00D0AD"/>
<stop offset="0.2045" stop-color="#00CC89"/>
<stop offset="0.3366" stop-color="#00C86B"/>
<stop offset="0.4754" stop-color="#00C553"/>
<stop offset="0.6236" stop-color="#00C343"/>
<stop offset="0.7878" stop-color="#00C239"/>
<stop offset="1" stop-color="#00C236"/>
</linearGradient>
<clipPath id="clip0_503_16">
<rect width="1080" height="1080" rx="256" fill="white"/>
</clipPath>
</defs>
</svg>
